# xmcd CD database file
#
# Track frame offsets:
#	150
#	5216
#	17871
#	31568
#	42170
#	55721
#	72141
#	83231
#	95069
#	109697
#	118462
#	130153
#	144336
#	154649
#	164210
#	180902
#	192964
#	208572
#	216235
#	224896
#	235218
#	248257
#
# Disc length: 3505 seconds
#
# Revision: 0
# Processed by: cddbd v1.4PL0 Copyright (c) Steve Scherf et al.
# Submitted via: Feurio! 1.65.4ß - http://www.feurio.com
#
DISCID=390daf16
DTITLE=DJ SNER - Blazin' RnB
DYEAR=1900
DGENRE=
TTITLE0=DJ Sner - Intro
TTITLE1=RAM - Z -- let me be the one
TTITLE2=Eve and Jadakiss - - got it all
TTITLE3=Jessica feat. Nice and Smooth - - get up
TTITLE4=Vega - let me get it
TTITLE5=Mya feat. JayZ - - best of me
TTITLE6=Amyth - - 1,2,3
TTITLE7=Alliyah - - try again
TTITLE8=Kandy - - don´t think i´m not
TTITLE9=Ruff endz - - no more
TTITLE10=Soul 4 real feat. Big Scoob - - summertime
TTITLE11=The 7inch project - - all i want to know
TTITLE12=Horace brown - - shake it up
TTITLE13=Brian McKnight - - played yourself
TTITLE14=Ma - - case of the ex
TTITLE15=Damage feat. Siamese - - ghetto romance
TTITLE16=Next - - wifey
TTITLE17=Breaks R us - - hands up
TTITLE18=Kelly Price - - good love
TTITLE19=J - Shin -- one night stand
TTITLE20=Jagged edge feat. Run DMC - - let´s get married
TTITLE21=Tony touch feat. Total - i wonder why
EXTD=
EXTT0=
EXTT1=
EXTT2=
EXTT3=
EXTT4=
EXTT5=
EXTT6=
EXTT7=
EXTT8=
EXTT9=
EXTT10=
EXTT11=
EXTT12=
EXTT13=
EXTT14=
EXTT15=
EXTT16=
EXTT17=
EXTT18=
EXTT19=
EXTT20=
EXTT21=
PLAYORDER=
